<svg id="Layer_1" data-name="Layer 1" xmlns="http://www.w3.org/2000/svg" viewBox="0 0 39.52 110.92"><defs><style>.cls-1{fill:#4ebd9e;}.cls-2{fill:none;stroke:#4ebd9e;stroke-linecap:round;stroke-linejoin:round;stroke-width:2px;}.cls-3{fill:#19805e;}.cls-4{fill:#0c5a3d;}</style></defs><circle class="cls-1" cx="11.71" cy="17.04" r="1.8"/><circle class="cls-1" cx="27.57" cy="17.04" r="1.8"/><circle class="cls-1" cx="34.84" cy="77.6" r="3.67"/><ellipse class="cls-1" cx="4.07" cy="77.6" rx="3.68" ry="3.67"/><path class="cls-2" d="M81.54,123a18.76,18.76,0,1,0-22.25,18.43v4.33H59a7.38,7.38,0,0,0-7.38,7.18l-.92,36.48H74.87l-1.23-36.55a7.39,7.39,0,0,0-7.38-7.11h0v-4.33A18.75,18.75,0,0,0,81.54,123Z" transform="translate(-43.02 -103.24)"/><path class="cls-2" d="M54.73,127.29s2.24,5.34,8.05,5.34,7.81-5.34,7.81-5.34" transform="translate(-43.02 -103.24)"/><path class="cls-2" d="M72.69,149.51s5.09,9,5.17,31.33" transform="translate(-43.02 -103.24)"/><path class="cls-2" d="M52.66,149.33s-5.48,9.18-5.57,31.51" transform="translate(-43.02 -103.24)"/><polyline class="cls-2" points="5.41 109.92 11.09 109.92 11.09 86.55"/><polyline class="cls-2" points="28.43 86.55 28.43 109.92 33.92 109.92"/><path class="cls-1" d="M60.69,159.11H57.93A1.85,1.85,0,0,0,56.08,161v0h0a1.85,1.85,0,0,0,1.85,1.85h2.76v2.75a1.85,1.85,0,0,0,3.7,0h0v-2.75Z" transform="translate(-43.02 -103.24)"/><circle class="cls-1" cx="67.11" cy="160.97" r="1.85" transform="translate(-78.2 -83.52) rotate(-13.28)"/><path class="cls-3" d="M60.68,159.11H57.93A1.86,1.86,0,0,0,56.08,161v0h0a1.87,1.87,0,0,0,1.85,1.85h6.45Z" transform="translate(-43.02 -103.24)"/><path class="cls-1" d="M60.68,158.66v-2.3a1.85,1.85,0,0,1,1.85-1.85h0a1.87,1.87,0,0,1,1.86,1.85v6Z" transform="translate(-43.02 -103.24)"/><polygon class="cls-4" points="17.66 55.88 17.66 59.57 21.36 59.57 17.66 55.88"/></svg>